<?xml version="1.0" encoding="UTF-8" standalone="no"?>
<svg xmlns="http://www.w3.org/2000/svg" xml:space="preserve" viewBox="0 0 320.8 52.2" version="1.1" y="0px" x="0px" xmlns:xlink="http://www.w3.org/1999/xlink" enable-background="new 0 0 320.8 52.2">
	<g fill="#4e5861">
		<path d="m17.2 29.1h6.4c6.5 0 11.7-5.3 11.7-11.8s-5.2-11.8-11.7-11.8h-18v42.5c0 0.5-0.5 1-1 1s-1-0.5-1-1v-43c0-0.8 0.7-1.4 1.4-1.4h18.5c7.6 0 13.8 6.1 13.8 13.8s-6.2 13.8-13.8 13.8h-5.1l12.7 16.3c0.3 0.4 0.2 1.1-0.2 1.4s-1.1 0.2-1.4-0.2l-13.3-17.2c-0.3-0.4-0.4-0.7-0.4-1 0-0.8 0.6-1.4 1.4-1.4z"/>
		<path d="m69.2 42.7c0.4-0.4 1-0.4 1.4 0s0.4 1.1 0 1.4c-3.4 3.3-8 5.4-13.1 5.4-10.1 0-18.4-8.2-18.4-18.4 0-10.1 8.3-18.4 18.4-18.4 7.1 0 13.4 4 16.4 10v-8.4c0-0.5 0.5-1 1-1s1 0.5 1 1v33.7c0 0.5-0.5 1-1 1s-1-0.5-1-1v-16.9c0-9-7.3-16.3-16.4-16.3-9 0-16.3 7.3-16.3 16.3 0 9.1 7.3 16.4 16.3 16.4 4.7 0 8.7-1.8 11.7-4.8z"/>
		<path d="m81.4 13.8h3.5v-3.7c0-4.2 3.4-7.6 7.6-7.6 2 0 3.9 0.8 5.3 2.2 0.2 0.2 0.4 0.4 0.4 0.8 0 0.5-0.5 1-1 1-0.4 0-0.6-0.1-0.8-0.3-1-1-2.4-1.6-3.9-1.6-3.1 0-5.6 2.5-5.6 5.6v3.7h8.7c0.5 0 1 0.5 1 1s-0.5 1-1 1h-14.2c-0.5 0-1-0.5-1-1s0.4-1.1 1-1.1zm5.5 6v28.2c0 0.5-0.5 1-1 1s-1-0.5-1-1v-28.2c0-0.5 0.5-1 1-1s1 0.5 1 1z"/>
		<path d="m127.8 42.7c0.4-0.4 1-0.4 1.4 0s0.4 1.1 0 1.4c-3.4 3.3-8 5.4-13.1 5.4-10.1 0-18.4-8.2-18.4-18.4 0-10.1 8.3-18.4 18.4-18.4 7.1 0 13.4 4 16.4 10v-8.4c0-0.5 0.5-1 1-1s1 0.5 1 1v33.7c0 0.5-0.5 1-1 1s-1-0.5-1-1v-16.9c0-9-7.3-16.3-16.4-16.3-9 0-16.3 7.3-16.3 16.3 0 9.1 7.3 16.4 16.3 16.4 4.6 0 8.7-1.8 11.7-4.8z"/>
		<path d="m139.7 26l9.1-1.9c0.5-0.1 1.1 0.3 1.2 0.8s-0.2 1.1-0.8 1.3l-9.1 1.9c-0.5 0.1-1.1-0.3-1.2-0.8-0.1-0.6 0.3-1.2 0.8-1.3zm3.8-21.9c0-0.6 0.5-1.1 1-1.1s1 0.5 1 1v16.7c0 0.5-0.5 1.1-1 1.2s-1-0.2-1-0.8v-17zm2 43.9c0 0.5-0.5 1.1-1 1-0.5 0-1-0.5-1-1v-16.7c0-0.5 0.5-1.1 1-1.2s1 0.2 1 0.8v17.1z"/>
		<path d="m197.4 48.5v-18.5h-18.3v18.5h-8.5v-45h8.5v18.4h18.3v-18.4h8.5v45h-8.5z"/>
		<path d="m217.4 2.2c2.6 0 4.7 2.1 4.7 4.7s-2.1 4.7-4.7 4.7-4.7-2.1-4.7-4.7c-0.1-2.6 2-4.7 4.7-4.7zm4.2 11.6v34.7h-8.5v-34.7h8.5z"/>
		<path d="m251.5 13.6l-2.7 7.7c-0.8-0.2-1.7-0.4-2.6-0.4-4.9 0-8.8 4-8.8 9v18.6h-8.5v-34.7h7.9v4.8c1.8-3.1 4.7-5.8 9.4-5.8 1.8-0.1 3.6 0.2 5.3 0.8z"/>
		<path d="m273.9 38.6c0-2.5-1.2-3.3-8.3-4.3-7.8-1-11.9-4.2-11.9-11 0-6.7 5.6-10.7 14-10.7 5.3 0 10.1 1.6 13.9 4.1l-3.7 6.4c-2.3-1.8-6.4-2.9-10.1-2.9s-5.3 1.3-5.3 3.1c0 2.2 1 2.9 7 3.6 9 1.3 13.4 4.4 13.4 11.6 0 7.1-6.9 10.9-15.1 10.9-5.7 0-10.9-1.6-14.7-4.1l4.1-6.8c2.5 1.9 6.4 3.1 10.6 3.3 3.6 0.4 6.1-1 6.1-3.2z"/>
		<path d="m298.7 40.2v0.1h18.1v8.2h-29.6v-8.2l18.2-18.3v-0.1h-18.2v-8.2h29.6v8.2l-18.1 18.3z"/>
	</g>
</svg>
